<svg width="131" height="22" viewBox="0 0 131 22" fill="none" xmlns="http://www.w3.org/2000/svg">
<path d="M101.992 3.38428L99.614 18.183H103.415L105.792 3.38428H101.992ZM113.458 9.41244C112.129 8.75648 111.315 8.31377 111.315 7.64287C111.331 7.03288 112.004 6.40794 113.505 6.40794C114.74 6.37692 115.648 6.66714 116.336 6.95589L116.681 7.10985L117.198 4.0136C116.447 3.72338 115.257 3.4036 113.786 3.4036C110.033 3.4036 107.389 5.35523 107.373 8.14649C107.342 10.2063 109.265 11.3493 110.705 12.035C112.175 12.7383 112.676 13.1944 112.676 13.8193C112.66 14.7788 111.487 15.2215 110.392 15.2215C108.876 15.2215 108.062 14.9935 106.825 14.4589L106.325 14.2308L105.793 17.4486C106.686 17.8455 108.328 18.1948 110.033 18.2127C114.022 18.2127 116.618 16.2906 116.65 13.3158C116.663 11.684 115.649 10.4341 113.458 9.41244ZM126.943 3.43008H124.002C123.096 3.43008 122.407 3.69074 122.015 4.62067L116.369 18.183H120.358L121.456 15.2467H125.919L126.489 18.1948H130.008L126.943 3.43008ZM122.563 12.2834C122.64 12.2909 124.094 7.49021 124.094 7.49021L125.252 12.2834C125.252 12.2834 123.313 12.2834 122.563 12.2834ZM96.4378 3.38428L92.7137 13.4386L92.308 11.4558C91.6194 9.16802 89.4606 6.68192 87.0513 5.44699L90.4615 18.1682H94.4833L100.46 3.3859H96.4378V3.38428Z" fill="#2394BC"/>
<path d="M91.0564 5.2936C90.7662 4.16521 89.8407 3.40418 88.5837 3.38794H82.6857L82.625 3.66175C87.2258 4.79599 91.0875 8.28608 92.3402 11.5689L91.0564 5.2936Z" fill="#EFC75E"/>
<path d="M67.6231 11.8462C67.6231 17.4335 63.1103 22.0001 57.4693 22.0001C51.882 22.0001 47.3154 17.4335 47.3154 11.8462C47.3154 6.25893 51.8283 1.69238 57.4156 1.69238C63.1103 1.69238 67.6231 6.25893 67.6231 11.8462Z" fill="#FFB600"/>
<path d="M57.4693 1.69238C63.0566 1.69238 67.6231 6.25893 67.6231 11.8462C67.6231 17.4335 63.1103 22.0001 57.4693 22.0001C51.882 22.0001 47.3154 17.4335 47.3154 11.8462" fill="#F7981D"/>
<path d="M57.4692 1.69238C63.0565 1.69238 67.6231 6.25893 67.6231 11.8462C67.6231 17.4335 63.1103 22.0001 57.4692 22.0001" fill="#FF8500"/>
<path d="M43.8238 1.69238C38.2902 1.74611 33.7773 6.25893 33.7773 11.8462C33.7773 17.4335 38.2902 22.0001 43.9312 22.0001C46.5637 22.0001 48.9275 20.9793 50.7542 19.3676C51.1302 19.0453 51.4526 18.6692 51.7749 18.2931H49.6797C49.4111 17.9708 49.1424 17.5947 48.9275 17.2724H52.5271C52.742 16.95 52.9568 16.574 53.118 16.1979H48.3366C48.1754 15.8755 48.0142 15.4995 47.9068 15.1234H53.4941C53.8164 14.1027 54.0313 13.0282 54.0313 11.9C54.0313 11.1478 53.9239 10.4494 53.8164 9.751H47.5844C47.6382 9.37493 47.7456 9.05259 47.8531 8.67652H53.4404C53.3329 8.30045 53.1717 7.92438 53.0106 7.60204H48.2829C48.444 7.22597 48.6589 6.90362 48.8738 6.52755H52.4733C52.2584 6.15148 51.9898 5.77542 51.6675 5.45307H49.6797C50.002 5.077 50.3244 4.75466 50.7004 4.43231C48.9275 2.76687 46.51 1.79983 43.8775 1.79983C43.8775 1.69238 43.8775 1.69238 43.8238 1.69238Z" fill="#FF5050"/>
<path d="M33.7773 11.8462C33.7773 17.4335 38.2902 22.0001 43.9312 22.0001C46.5637 22.0001 48.9275 20.9793 50.7542 19.3676C51.1302 19.0452 51.4526 18.6692 51.7749 18.2931H49.6797C49.4111 17.9708 49.1424 17.5947 48.9275 17.2723H52.5271C52.742 16.95 52.9568 16.5739 53.118 16.1979H48.3366C48.1754 15.8755 48.0142 15.4995 47.9068 15.1234H53.4941C53.8164 14.1026 54.0313 13.0281 54.0313 11.8999C54.0313 11.1478 53.9239 10.4494 53.8164 9.75097H47.5844C47.6382 9.3749 47.7456 9.05256 47.8531 8.67649H53.4404C53.3329 8.30042 53.1717 7.92435 53.0106 7.60201H48.2829C48.444 7.22594 48.6589 6.90359 48.8738 6.52753H52.4733C52.2584 6.15146 51.9898 5.77539 51.6675 5.45304H49.6797C50.002 5.07698 50.3244 4.75463 50.7004 4.43229C48.9275 2.76684 46.51 1.7998 43.8775 1.7998H43.8238" fill="#E52836"/>
<path d="M43.9317 22.0001C46.5641 22.0001 48.928 20.9793 50.7546 19.3676C51.1307 19.0452 51.453 18.6692 51.7754 18.2931H49.6801C49.4115 17.9708 49.1429 17.5947 48.928 17.2723H52.5275C52.7424 16.95 52.9573 16.5739 53.1185 16.1979H48.337C48.1759 15.8755 48.0147 15.4995 47.9072 15.1234H53.4946C53.8169 14.1026 54.0318 13.0281 54.0318 11.8999C54.0318 11.1478 53.9243 10.4494 53.8169 9.75097H47.5849C47.6386 9.3749 47.7461 9.05256 47.8535 8.67649H53.4408C53.3334 8.30042 53.1722 7.92435 53.011 7.60201H48.2833C48.4445 7.22594 48.6594 6.90359 48.8743 6.52753H52.4738C52.2589 6.15146 51.9903 5.77539 51.6679 5.45304H49.6801C50.0025 5.07698 50.3248 4.75463 50.7009 4.43229C48.928 2.76684 46.5104 1.7998 43.8779 1.7998H43.8242" fill="#CB2026"/>
<path d="M47.5297 14.424L47.6909 13.5107C47.6371 13.5107 47.5297 13.5644 47.4222 13.5644C47.0462 13.5644 46.9924 13.3495 47.0462 13.2421L47.3685 11.3617H47.9595L48.1206 10.341H47.5834L47.6909 9.69629H46.6164C46.6164 9.69629 45.9717 13.2421 45.9717 13.6719C45.9717 14.3166 46.3477 14.5852 46.8313 14.5852C47.1536 14.5852 47.4222 14.4777 47.5297 14.424Z" fill="white"/>
<path d="M47.9092 12.7047C47.9092 14.2089 48.9299 14.585 49.7895 14.585C50.5954 14.585 50.9177 14.4238 50.9177 14.4238L51.1326 13.4031C51.1326 13.4031 50.5417 13.6717 50.0044 13.6717C48.8225 13.6717 49.0374 12.8121 49.0374 12.8121H51.2401C51.2401 12.8121 51.4012 12.1137 51.4012 11.8451C51.4012 11.1467 51.0252 10.2871 49.8432 10.2871C48.715 10.1796 47.9092 11.3616 47.9092 12.7047ZM49.7895 11.1467C50.3805 11.1467 50.273 11.8451 50.273 11.8988H49.0911C49.0911 11.8451 49.1986 11.1467 49.7895 11.1467Z" fill="white"/>
<path d="M56.6179 14.4241L56.8328 13.2422C56.8328 13.2422 56.2956 13.5108 55.9195 13.5108C55.1674 13.5108 54.845 12.9199 54.845 12.2752C54.845 10.9858 55.4897 10.2874 56.2418 10.2874C56.7791 10.2874 57.2089 10.6097 57.2089 10.6097L57.37 9.48151C57.37 9.48151 56.7254 9.21289 56.1344 9.21289C54.8987 9.21289 53.6631 10.2874 53.6631 12.3289C53.6631 13.672 54.3078 14.5853 55.5972 14.5853C56.0269 14.5853 56.6179 14.4241 56.6179 14.4241Z" fill="white"/>
<path d="M41.6226 10.1797C40.8704 10.1797 40.3332 10.3946 40.3332 10.3946L40.172 11.3079C40.172 11.3079 40.6555 11.093 41.354 11.093C41.73 11.093 42.0524 11.1467 42.0524 11.4691C42.0524 11.684 41.9986 11.7377 41.9986 11.7377C41.9986 11.7377 41.6763 11.7377 41.5151 11.7377C40.6018 11.7377 39.5811 12.1138 39.5811 13.3494C39.5811 14.3164 40.2257 14.5313 40.6018 14.5313C41.3539 14.5313 41.6763 14.0478 41.73 14.0478L41.6763 14.4776H42.6433L43.0731 11.5228C43.0731 10.2334 41.9986 10.1797 41.6226 10.1797ZM41.8375 12.5973C41.8375 12.7584 41.73 13.618 41.0853 13.618C40.763 13.618 40.6555 13.3494 40.6555 13.1882C40.6555 12.9196 40.8167 12.5435 41.6226 12.5435C41.7837 12.5973 41.8375 12.5973 41.8375 12.5973Z" fill="white"/>
<path d="M44.0941 14.5314C44.3627 14.5314 45.7058 14.5851 45.7058 13.1345C45.7058 11.7914 44.4164 12.06 44.4164 11.5228C44.4164 11.2542 44.6313 11.1467 45.0074 11.1467C45.1685 11.1467 45.7595 11.2005 45.7595 11.2005L45.9207 10.2334C45.9207 10.2334 45.5446 10.126 44.8999 10.126C44.0941 10.126 43.2882 10.4483 43.2882 11.5228C43.2882 12.7585 44.6313 12.651 44.6313 13.1345C44.6313 13.4569 44.2552 13.5106 43.9866 13.5106C43.5031 13.5106 43.0196 13.3494 43.0196 13.3494L42.8584 14.3165C42.9121 14.4239 43.1807 14.5314 44.0941 14.5314Z" fill="white"/>
<path d="M65.534 9.32031L65.3191 10.7709C65.3191 10.7709 64.8893 10.2336 64.2983 10.2336C63.3313 10.2336 62.4717 11.4156 62.4717 12.8124C62.4717 13.672 62.9015 14.5853 63.8148 14.5853C64.4595 14.5853 64.8355 14.1555 64.8355 14.1555L64.7818 14.5316H65.8563L66.6622 9.37404L65.534 9.32031ZM65.0504 12.1677C65.0504 12.7587 64.7818 13.5108 64.1908 13.5108C63.8148 13.5108 63.5999 13.1884 63.5999 12.6512C63.5999 11.7916 63.976 11.2544 64.4595 11.2544C64.8355 11.2544 65.0504 11.523 65.0504 12.1677Z" fill="white"/>
<path d="M35.7698 14.4778L36.4145 10.6097L36.5219 14.4778H37.2741L38.6709 10.6097L38.0799 14.4778H39.2081L40.0677 9.32031H38.2948L37.2203 12.49L37.1666 9.32031H35.6086L34.749 14.4778H35.7698Z" fill="white"/>
<path d="M52.4241 14.4776C52.7465 12.7047 52.8002 11.2541 53.5523 11.5228C53.6598 10.8243 53.8209 10.5557 53.9284 10.2871C53.9284 10.2871 53.8747 10.2871 53.7135 10.2871C53.23 10.2871 52.8539 10.9318 52.8539 10.9318L52.9614 10.3408H51.9406L51.2422 14.5313H52.4241V14.4776Z" fill="white"/>
<path d="M59.0879 10.1797C58.3358 10.1797 57.7985 10.3946 57.7985 10.3946L57.6374 11.3079C57.6374 11.3079 58.1209 11.093 58.8193 11.093C59.1954 11.093 59.5177 11.1467 59.5177 11.4691C59.5177 11.684 59.464 11.7377 59.464 11.7377C59.464 11.7377 59.1416 11.7377 58.9805 11.7377C58.0671 11.7377 57.0464 12.1138 57.0464 13.3494C57.0464 14.3164 57.6911 14.5313 58.0671 14.5313C58.8193 14.5313 59.1416 14.0478 59.1954 14.0478L59.1416 14.4776H60.1087L60.5385 11.5228C60.5922 10.2334 59.464 10.1797 59.0879 10.1797ZM59.3565 12.5973C59.3565 12.7584 59.2491 13.618 58.6044 13.618C58.282 13.618 58.1746 13.3494 58.1746 13.1882C58.1746 12.9196 58.3358 12.5435 59.1416 12.5435C59.3028 12.5973 59.3028 12.5973 59.3565 12.5973Z" fill="white"/>
<path d="M61.4476 14.4776C61.7699 12.7047 61.8236 11.2541 62.5758 11.5228C62.6832 10.8243 62.8444 10.5557 62.9518 10.2871C62.9518 10.2871 62.8981 10.2871 62.7369 10.2871C62.2534 10.2871 61.8773 10.9318 61.8773 10.9318L61.9848 10.3408H60.964L60.2656 14.5313H61.4476V14.4776Z" fill="white"/>
<path d="M45.8662 13.6719C45.8662 14.3166 46.2423 14.5852 46.7258 14.5852C47.1019 14.5852 47.4242 14.4777 47.5317 14.424L47.6928 13.5107C47.6391 13.5107 47.5317 13.5644 47.4242 13.5644C47.0481 13.5644 46.9944 13.3495 47.0481 13.2421L47.3705 11.3617H47.9615L48.1226 10.341H47.5854L47.6928 9.69629" fill="#DCE5E5"/>
<path d="M48.4443 12.7047C48.4443 14.2089 48.9279 14.585 49.7874 14.585C50.5933 14.585 50.9156 14.4238 50.9156 14.4238L51.1305 13.4031C51.1305 13.4031 50.5396 13.6717 50.0023 13.6717C48.8204 13.6717 49.0353 12.8121 49.0353 12.8121H51.238C51.238 12.8121 51.3992 12.1137 51.3992 11.8451C51.3992 11.1467 51.0231 10.2871 49.8412 10.2871C48.713 10.1796 48.4443 11.3616 48.4443 12.7047ZM49.7874 11.1467C50.3784 11.1467 50.4859 11.8451 50.4859 11.8988H49.089C49.089 11.8451 49.1965 11.1467 49.7874 11.1467Z" fill="#DCE5E5"/>
<path d="M56.6158 14.4241L56.8307 13.2422C56.8307 13.2422 56.2935 13.5108 55.9174 13.5108C55.1653 13.5108 54.8429 12.9199 54.8429 12.2752C54.8429 10.9858 55.4876 10.2874 56.2398 10.2874C56.777 10.2874 57.2068 10.6097 57.2068 10.6097L57.368 9.48151C57.368 9.48151 56.7233 9.21289 56.1323 9.21289C54.8967 9.21289 54.1982 10.2874 54.1982 12.3289C54.1982 13.672 54.3057 14.5853 55.5951 14.5853C56.0249 14.5853 56.6158 14.4241 56.6158 14.4241Z" fill="#DCE5E5"/>
<path d="M40.172 11.3616C40.172 11.3616 40.6555 11.1467 41.354 11.1467C41.73 11.1467 42.0524 11.2004 42.0524 11.5228C42.0524 11.7377 41.9986 11.7914 41.9986 11.7914C41.9986 11.7914 41.6763 11.7914 41.5151 11.7914C40.6018 11.7914 39.5811 12.1675 39.5811 13.4031C39.5811 14.3701 40.2257 14.585 40.6018 14.585C41.3539 14.585 41.6763 14.1015 41.73 14.1015L41.6763 14.5313H42.6433L43.0731 11.5765C43.0731 10.3408 41.9986 10.2871 41.5688 10.2871L40.172 11.3616ZM42.3747 12.5972C42.3747 12.7584 41.73 13.618 41.0853 13.618C40.763 13.618 40.6555 13.3494 40.6555 13.1882C40.6555 12.9196 40.8167 12.5435 41.6226 12.5435C41.7837 12.5972 42.3747 12.5972 42.3747 12.5972Z" fill="#DCE5E5"/>
<path d="M42.9131 14.4239C42.9131 14.4239 43.2354 14.5314 44.1487 14.5314C44.4174 14.5314 45.7605 14.5851 45.7605 13.1345C45.7605 11.7914 44.4711 12.06 44.4711 11.5228C44.4711 11.2542 44.686 11.1467 45.062 11.1467C45.2232 11.1467 45.8142 11.2005 45.8142 11.2005L45.9754 10.2334C45.9754 10.2334 45.5993 10.126 44.9546 10.126C44.1487 10.126 43.8801 10.4483 43.8801 11.5228C43.8801 12.7585 44.686 12.651 44.686 13.1345C44.686 13.4569 44.3099 13.5106 44.0413 13.5106" fill="#DCE5E5"/>
<path d="M65.3165 10.7709C65.3165 10.7709 64.8867 10.2336 64.2957 10.2336C63.3287 10.2336 63.0063 11.4155 63.0063 12.8124C63.0063 13.672 62.8989 14.5853 63.8122 14.5853C64.4569 14.5853 64.833 14.1555 64.833 14.1555L64.7792 14.5315H65.8537L66.6596 9.37402L65.3165 10.7709ZM65.2628 12.1677C65.2628 12.7586 64.7792 13.5108 64.1883 13.5108C63.8122 13.5108 63.5973 13.1884 63.5973 12.6512C63.5973 11.7916 63.9734 11.2544 64.4569 11.2544C64.833 11.2544 65.2628 11.523 65.2628 12.1677Z" fill="#DCE5E5"/>
<path d="M35.7698 14.4778L36.4145 10.6097L36.5219 14.4778H37.2741L38.6709 10.6097L38.0799 14.4778H39.2081L40.0677 9.32031H38.7246L37.2203 12.49L37.1666 9.32031H36.5756L34.749 14.4778H35.7698Z" fill="#DCE5E5"/>
<path d="M51.2949 14.4776H52.4231C52.7455 12.7047 52.7992 11.2541 53.5513 11.5228C53.6588 10.8244 53.82 10.5557 53.9274 10.2871C53.9274 10.2871 53.8737 10.2871 53.7125 10.2871C53.229 10.2871 52.8529 10.9318 52.8529 10.9318L52.9604 10.3408" fill="#DCE5E5"/>
<path d="M57.6374 11.3616C57.6374 11.3616 58.1209 11.1467 58.8193 11.1467C59.1953 11.1467 59.5177 11.2004 59.5177 11.5228C59.5177 11.7377 59.464 11.7914 59.464 11.7914C59.464 11.7914 59.1416 11.7914 58.9805 11.7914C58.0671 11.7914 57.0464 12.1675 57.0464 13.4031C57.0464 14.3701 57.6911 14.585 58.0671 14.585C58.8193 14.585 59.1416 14.1015 59.1954 14.1015L59.1416 14.5313H60.1087L60.5385 11.5765C60.5385 10.3408 59.464 10.2871 59.0342 10.2871L57.6374 11.3616ZM59.84 12.5972C59.84 12.7584 59.1953 13.618 58.5507 13.618C58.2283 13.618 58.1209 13.3494 58.1209 13.1882C58.1209 12.9196 58.282 12.5435 59.0879 12.5435C59.3028 12.5972 59.84 12.5972 59.84 12.5972Z" fill="#DCE5E5"/>
<path d="M60.3232 14.4776H61.4514C61.7738 12.7047 61.8275 11.2541 62.5797 11.5228C62.6871 10.8244 62.8483 10.5557 62.9557 10.2871C62.9557 10.2871 62.902 10.2871 62.7408 10.2871C62.2573 10.2871 61.8812 10.9318 61.8812 10.9318L61.9887 10.3408" fill="#DCE5E5"/>
<path d="M15.8048 1.63351C14.8991 0.606185 13.5994 0.0122793 12.2299 3.33789e-05H4.63995C3.50409 -0.0060681 2.53705 0.824979 2.37218 1.94881L0.0154638 17.6703C-0.0974136 18.4213 0.419794 19.1216 1.17075 19.2345C1.2389 19.2447 1.30777 19.2498 1.3767 19.2498H4.89665C5.11415 19.2494 5.30141 19.0962 5.34489 18.8831L6.64197 12.8332H10.4003C13.6617 12.8332 15.8168 10.5535 16.8068 6.04995C16.8466 5.87043 16.8772 5.68902 16.8984 5.50636C17.1282 4.11698 16.7274 2.69745 15.8048 1.63351Z" fill="#283593"/>
</svg>
